<svg xmlns="http://www.w3.org/2000/svg" width="23.584" height="12.864" viewBox="0 0 23.584 12.864">
  <path id="Path_207" data-name="Path 207" d="M22.44,6H3.144A2.15,2.15,0,0,0,1,8.144V16.72a2.15,2.15,0,0,0,2.144,2.144h19.3a2.15,2.15,0,0,0,2.144-2.144V8.144A2.15,2.15,0,0,0,22.44,6ZM11.72,13.5H8.5V16.72H6.36V13.5H3.144V11.36H6.36V8.144H8.5V11.36H11.72Zm4.824,2.144a1.608,1.608,0,1,1,1.608-1.608A1.606,1.606,0,0,1,16.544,15.648Zm4.288-3.216a1.608,1.608,0,1,1,1.608-1.608A1.606,1.606,0,0,1,20.832,12.432Z" transform="translate(-1 -6)" fill="#f7f7f7"/>
</svg>
