<svg xmlns="http://www.w3.org/2000/svg" width="16.534" height="14.881" viewBox="0 0 16.534 14.881">
  <path id="Path_204" data-name="Path 204" d="M7.787,3,6.274,4.653H3.653A1.658,1.658,0,0,0,2,6.307v9.921a1.658,1.658,0,0,0,1.653,1.653H16.881a1.658,1.658,0,0,0,1.653-1.653V6.307a1.658,1.658,0,0,0-1.653-1.653H14.26L12.747,3Zm2.48,12.4A4.134,4.134,0,1,1,14.4,11.267,4.135,4.135,0,0,1,10.267,15.4Zm0-.827L11.3,12.3l2.273-1.033L11.3,10.234,10.267,7.96,9.234,10.234,6.96,11.267,9.234,12.3Z" transform="translate(-2 -3)"/>
</svg>
